<svg version="1" xmlns="http://www.w3.org/2000/svg" width="933.333" height="933.333" viewBox="0 0 700.000000 700.000000"><path d="M19.2 1.9C11.9 4.4 7 8.6 3.5 15.5l-3 5.9v655.1l2.1 4.6c2.7 5.8 8.5 11.6 14.3 14.3l4.6 2.1 323 .3c229.4.2 324.9 0 329.4-.8 12.4-2.1 21-10.7 23.1-23.1.8-4.5 1-100 .8-329.4l-.3-323-2.1-4.6c-2.7-5.8-8.5-11.6-14.3-14.3L676.5.5l-326-.2C36.7.1 24.3.1 19.2 1.9zM525 82.1c31.1 18.2 56.8 33.4 57.2 33.8.4.3-7.1 18.6-16.6 40.6l-17.4 39.9 20.1 17c11.1 9.4 21.8 18.7 23.8 20.6l3.7 3.5-22.6 50.7c-12.5 28-23.1 50.8-23.6 50.8s-17.3-7.4-37.3-16.5c-20.1-9.1-36.8-16.5-37.1-16.5-.8 0-17.5 30-17 30.4.2.2 4.4 2.7 9.3 5.6 61.8 36.7 98.1 71.1 91.5 86.9-3.8 9.4-32.7 28.4-82.4 54.3l-16 8.3-3.3 10c-1.8 5.5-5.2 13.8-7.6 18.5-4.5 9.1-7.1 11.5-15.5 14.6-13.4 4.8-18.5 8.3-22 14.9-2.9 5.3-2.1 17.8 2.2 35.5 2.6 10.4 4 18.8 4.3 25.6l.5 10-3.1 3.6c-1.7 2-7.4 5.8-13.1 8.8-6 3.2-11.5 6.9-13.8 9.4-4.1 4.5-12.6 20.6-21.7 41.3l-5.8 13.3H62.8l2.7-3.6C78.8 676 103.7 640 115.6 621c19.8-31.5 37.4-68.6 37.4-79.2 0-1.8-.9-8.7-2.2-15.4-1.8-10.4-2-12.7-.9-16.5 1.7-5.9 8.5-11.1 26-19.5 7.5-3.6 16.3-7.9 19.6-9.6 19.2-9.7 24-20 18-38.5-1.4-4.3-2.8-10.3-3.1-13.3-.6-5.2-.3-6.1 4.4-15.5 2.8-5.5 7.5-13.6 10.4-18.1l5.5-8-4.8-35.5c-5-37.8-7.9-63.2-7.9-70.3 0-6 4.4-10.7 12-13 18.2-5.5 58.7-1.1 100.5 11 6.5 1.8 12.2 3.1 12.6 2.6 2.7-3 27.9-47.6 27.3-48.1-.5-.4-13.9-10.4-29.7-22.1-15.8-11.7-28.6-21.8-28.3-22.4 1.9-5 50-109.3 50.6-109.9.4-.5 12.9 7.6 27.6 18 14.8 10.4 28.1 19.7 29.5 20.7l2.6 1.7 22.4-35.5C457.4 65 467.7 49.1 468 49c.3 0 26 14.9 57 33.1z"/></svg>