<svg version="1" xmlns="http://www.w3.org/2000/svg" width="682.667" height="682.667" viewBox="0 0 512.000000 512.000000"><path d="M13.5 1.5C8.4 3.3 2.5 9.6 1.1 14.6-.4 20-.4 491.9 1.1 497.3c.6 2.1 2.6 5.6 4.6 7.8 5 5.5 10.4 6.9 26.7 6.9l13.1-.1 8.7-11.7c26.1-35.4 45.8-68.2 54.4-90.4 3.8-9.8 4.1-13.3 1.8-24.4-2.9-14.1-1-16.3 24-28.4 16.6-8 21.8-12.2 23.6-19 1.1-4 1-5.4-1.1-12-3.6-11.9-3.6-14.7.1-22.1 1.8-3.5 5.2-9.4 7.7-13.1l4.4-6.7-3.5-26.3c-7.7-58-7.7-56.2 1.9-60.5 3.3-1.5 6.6-1.8 19-1.7 16.5.2 32.7 2.7 52.8 8.4 5.9 1.6 11.1 3 11.6 3 .6 0 16.2-25.7 20.8-34.2.2-.3-9.3-7.8-21.2-16.5-11.8-8.7-21.4-16.1-21.5-16.5 0-.6 36.8-81.8 37.4-82.5 0 0 9.9 6.8 21.9 15.3L310.1 88l3.9-6.3c21.8-34.7 28.8-45.2 30.2-45.1.9.1 9.6 4.9 19.4 10.7 9.9 5.7 28 16.4 40.4 23.7 12.4 7.2 22.8 13.5 23.2 13.9.4.4-4.6 13-11.2 28.1-6.7 15.1-12.3 28.4-12.6 29.5-.4 1.6 2.9 4.9 16.6 16.4 9.3 7.9 17 14.7 17 15.1 0 1.1-32.1 73.3-33 74.3-.4.5-12.8-4.6-27.5-11.3-14.8-6.6-27.2-11.9-27.7-11.8-.7.3-12.9 21.1-12.5 21.4.1.1 6.9 4.2 15 9.2 37.3 22.9 59.7 44.1 59.7 56.6 0 5.9-13.9 16.5-41 31.4-8 4.4-18.5 10.1-23.3 12.8l-8.9 4.9-2.7 8c-1.5 4.4-4 10.5-5.7 13.5-2.5 4.8-3.7 5.9-8.9 8.3-14.7 6.9-14.9 7.1-17.2 11.7-3 5.8-2.9 10 .7 25 4 16.7 4.8 25.8 2.6 29.2-.9 1.4-5.7 4.7-10.7 7.4-9.8 5.1-11.9 7.4-17.7 19.1-4.1 8.1-12.2 26.3-12.2 27.4 0 .5 49.6.9 113.3.9 125.4 0 120.1.3 126.5-6.3 6.6-6.8 6.2 10.8 6.2-250.2 0-264.6.6-243-7-249.9-2.1-1.9-5.6-3.9-7.7-4.5-2.6-.8-77-1.1-241.8-1.1C52.9.1 16.9.3 13.5 1.5z"/></svg>