<svg xmlns="http://www.w3.org/2000/svg" viewBox="0 0 512 512.00001" clip-rule="evenodd" fill-rule="evenodd" stroke-linejoin="round" stroke-miterlimit="1.41420996">
<!--    <rect width="512" height="512" ry="135.27226" fill="#1b1b1e" fill-rule="nonzero" paint-order="markers stroke fill"/>-->
    <defs>
        <filter id="a" color-interpolation-filters="sRGB">
            <feFlood flood-opacity="1" flood-color="#FFF07C" result="flood"/>
            <feComposite in="flood" in2="SourceGraphic" operator="out" result="composite1"/>
            <feGaussianBlur in="composite1" stdDeviation="5.5" result="blur"/>
            <feOffset dx="5" dy="5" result="offset"/>
            <feComposite in="offset" in2="SourceGraphic" operator="in" result="composite2"/>
        </filter>
    </defs>
    <g fill-rule="nonzero" paint-order="markers stroke fill">
        <path d="M322.64258 61.0465152l-33.22461 52.429686-43.66406-30.630858-38.02149 82.892578 43.53516 32.34766-20.53711 34.79687c-45.83795-14.22552-91.82227-18.06948-91.82227-1.20117 0 8.3549 4.15249 40.65566 9.4043 78.15039-5.9963 7.77274-10.93102 16.468-14.66211 24.80273-2.8885 6.45566 3.43085 15.97677 4.14649 23.01172 1.68231 21.80804-29.81141 21.82646-47.57813 38.48438-5.39321 8.75838 3.508399 20.97477.605469 30.83984-1.2639 4.2884-2.97678 8.87297-5.03711 13.64844l-.408203.6582.08398.0879c-6.575717 15.0502-16.495065 31.89902-26.433594 47.24024 21.682578 14.76982 47.916133 23.39453 76.242183 23.39453h121.03711c2.73922-5.64388 5.50893-10.87671 7.71094-13.98242 5.65003-7.9716 20.01419-8.54053 23.37305-17.7168 1.97087-23.03865-16.5654-46.49363.69922-58.08789 5.67312-3.61113 16.50268-4.51455 19.61914-10.46875 3.98215-7.61134 7.53278-16.30821 9.80664-25.25391 40.33221-20.26042 73.13086-39.42595 73.13086-48.16992 0-17.19974-34.52127-42.89354-74.78711-66.14258l12.16015-21.78906 55.30664 24.97461 33.7793-75.94727-34.95703-29.68945 25.61914-58.81836z" fill="#477bff"/>
        <path d="M322.64258 62.277344l-33.22461 52.429686-43.66406-30.630858-38.02149 82.892578 43.53516 32.34766-20.53711 34.79687c-45.83795-14.22552-91.82227-18.06948-91.82227-1.20117 0 8.3549 4.15249 40.65566 9.4043 78.15039-5.9963 7.77274-10.93102 16.468-14.66211 24.80273-2.8885 6.45566 3.43085 15.97677 4.14649 23.01172 1.68231 21.80804-29.81141 21.82646-47.57813 38.48438-5.39321 8.75838 3.508399 20.97477.605469 30.83984-1.2639 4.2884-2.97678 8.87297-5.03711 13.64844l-.408203.6582.08398.0879c-6.575717 15.0502-16.495065 31.89902-26.433594 47.24024 21.682578 14.76982 47.916133 23.39453 76.242183 23.39453h121.03711c2.73922-5.64388 5.50893-10.87671 7.71094-13.98242 5.65003-7.9716 20.01419-8.54053 23.37305-17.7168 1.97087-23.03865-16.5654-46.49363.69922-58.08789 5.67312-3.61113 16.50268-4.51455 19.61914-10.46875 3.98215-7.61134 7.53278-16.30821 9.80664-25.25391 40.33221-20.26042 73.13086-39.42595 73.13086-48.16992 0-17.19974-34.52127-42.89354-74.78711-66.14258l12.16015-21.78906 55.30664 24.97461 33.7793-75.94727-34.95703-29.68945 25.61914-58.81836z" fill="#fff07c" filter="url(#a)" transform="translate(0 -1.2308288)"/>
    </g>
</svg>
